<svg version="1.1" id="Layer_1" xmlns="http://www.w3.org/2000/svg" xmlns:xlink="http://www.w3.org/1999/xlink" x="0px" y="0px"
	 width="100%" viewBox="0 0 185 175" enable-background="new 0 0 185 175" xml:space="preserve">
<path fill="#02388F" opacity="1.000000" stroke="none" 
	d="
M110.000000,176.000000 
	C73.333336,176.000000 37.166672,176.000000 1.000003,176.000000 
	C1.000000,119.000008 1.039130,61.999916 0.902915,5.000249 
	C0.894730,1.575290 1.575251,0.895200 5.000205,0.903026 
	C63.999889,1.037835 123.000061,1.037831 181.999741,0.903033 
	C185.424606,0.895208 186.105606,1.575099 186.097168,5.000211 
	C185.959946,60.666534 185.959961,116.333389 186.097168,171.999710 
	C186.105606,175.424667 185.428391,176.128571 181.999237,176.101028 
	C158.167435,175.909637 134.333344,176.000000 110.000000,176.000000 
z"/>
<path fill="#F9FAFC" opacity="1.000000" stroke="none" 
	d="
M87.440689,72.983597 
	C84.141228,79.413750 80.099106,81.953110 74.363785,81.449036 
	C69.004631,80.978020 64.540276,77.265060 63.220604,72.181374 
	C61.943775,67.262703 63.785858,61.886021 67.797653,58.821899 
	C71.803787,55.762093 77.443245,55.335484 81.843307,58.008305 
	C87.397186,61.382015 88.938339,66.466972 87.440689,72.983597 
z"/>
<path fill="#F9FAFC" opacity="1.000000" stroke="none" 
	d="
M65.713188,113.173843 
	C61.985981,107.808670 61.827106,102.588951 65.338699,97.568565 
	C68.275070,93.370552 72.596985,92.016685 77.615379,92.754494 
	C82.782822,93.514221 85.942360,96.642067 87.514511,101.413841 
	C89.297440,106.825356 87.027222,112.820099 82.281944,115.786743 
	C76.978287,119.102486 71.531410,118.325813 65.713188,113.173843 
z"/>
<path fill="#F9FAFC" opacity="1.000000" stroke="none" 
	d="
M112.717445,92.561295 
	C120.715332,94.291046 124.575012,99.003487 124.168694,106.133179 
	C123.820023,112.251305 118.922737,117.166283 112.564766,117.779015 
	C106.760254,118.338409 101.292824,114.326202 99.448708,108.420853 
	C97.490692,102.150757 101.904045,92.169685 112.717445,92.561295 
z"/>
<path fill="#F9FAFC" opacity="1.000000" stroke="none" 
	d="
M99.735580,72.929199 
	C98.219025,65.207779 101.039848,59.373066 107.071823,57.100639 
	C112.954521,54.884453 119.447739,57.164455 122.607887,62.555920 
	C125.688797,67.812195 124.356277,74.916100 119.615990,78.771797 
	C113.653503,83.621605 102.876625,82.022842 99.735580,72.929199 
z"/>
<path fill="#F4F7FA" opacity="1.000000" stroke="none" 
	d="
M44.225777,63.524940 
	C48.855717,63.720226 51.396339,66.051842 51.884182,70.176186 
	C52.270641,73.443420 50.595524,75.882065 47.579731,77.288528 
	C44.455757,78.745430 41.719608,77.888206 39.461761,75.576126 
	C35.462780,71.481087 37.612167,65.719826 44.225777,63.524940 
z"/>
<path fill="#F3F6FA" opacity="1.000000" stroke="none" 
	d="
M137.453979,108.506737 
	C134.773849,105.363953 134.373138,102.238441 136.550934,99.143158 
	C138.297363,96.660995 140.892426,95.514641 143.940643,96.216347 
	C146.925156,96.903389 148.867722,98.827736 149.494659,101.900795 
	C150.081100,104.775406 149.114868,107.156143 146.848114,108.903160 
	C143.824402,111.233582 140.730698,110.966743 137.453979,108.506737 
z"/>
<path fill="#F3F6FA" opacity="1.000000" stroke="none" 
	d="
M135.247864,69.400497 
	C138.058899,63.884422 142.072937,62.157978 146.009537,64.435066 
	C149.661697,66.547623 150.791428,71.289803 148.373611,74.739182 
	C146.609116,77.256493 144.110748,78.519279 141.070755,77.779488 
	C136.990143,76.786438 135.076660,73.960106 135.247864,69.400497 
z"/>
<path fill="#F4F7FA" opacity="1.000000" stroke="none" 
	d="
M42.079891,109.983902 
	C38.348904,107.906624 36.752888,105.088089 37.870895,101.176849 
	C38.799423,97.928490 41.265553,96.255775 44.458351,96.082001 
	C47.727444,95.904060 50.132061,97.610466 51.406029,100.678932 
	C53.710312,106.228981 49.236019,110.904930 42.079891,109.983902 
z"/>
<path fill="#F7F9FB" opacity="1.000000" stroke="none" 
	d="
M148.594009,34.459305 
	C150.434418,38.701481 149.688965,42.085609 145.991089,44.273994 
	C143.208923,45.920460 140.217285,45.740997 137.667038,43.482098 
	C134.511887,40.687401 134.326370,36.274628 137.154968,33.243908 
	C140.230759,29.948324 144.339615,30.279072 148.594009,34.459305 
z"/>
<path fill="#F7F9FB" opacity="1.000000" stroke="none" 
	d="
M135.580841,133.672272 
	C138.575256,129.007416 142.093704,127.513092 145.614014,129.449997 
	C148.863571,131.237915 150.380356,134.095200 149.248688,137.829651 
	C148.061371,141.747742 145.208603,143.438217 141.222946,142.931351 
	C137.169632,142.415863 135.227463,139.288986 135.580841,133.672272 
z"/>
<path fill="#F6F8FB" opacity="1.000000" stroke="none" 
	d="
M84.495079,38.021172 
	C83.885368,42.465096 81.871941,45.073261 77.441811,45.186413 
	C73.820900,45.278896 71.482605,43.464611 70.363144,40.161896 
	C69.266136,36.925423 70.563736,34.273167 73.098618,32.318165 
	C77.473892,28.943773 82.608910,31.398190 84.495079,38.021172 
z"/>
<path fill="#F6F8FB" opacity="1.000000" stroke="none" 
	d="
M38.842365,42.243965 
	C36.586189,36.047470 38.722359,31.537149 43.874935,31.009644 
	C47.479076,30.640661 50.029312,32.315262 51.398968,35.560360 
	C52.825817,38.940975 51.786743,41.954041 48.861958,43.883968 
	C45.405720,46.164577 41.932186,45.870701 38.842365,42.243965 
z"/>
<path fill="#F6F8FB" opacity="1.000000" stroke="none" 
	d="
M83.082001,140.138077 
	C79.932381,143.405930 76.560066,144.104111 73.100632,141.649811 
	C70.501289,139.805695 69.334587,137.087677 70.345985,133.818710 
	C71.573380,129.851639 75.942963,127.719574 79.901665,129.110352 
	C83.922279,130.522888 85.219307,134.636719 83.082001,140.138077 
z"/>
<path fill="#F6F8FB" opacity="1.000000" stroke="none" 
	d="
M39.292244,131.129913 
	C43.861187,128.013565 47.641563,128.095520 50.188889,131.245102 
	C52.764889,134.430099 52.668785,137.738922 49.900139,140.724808 
	C47.094822,143.750244 43.627125,143.965195 40.462784,141.579636 
	C36.833431,138.843521 36.660397,135.203506 39.292244,131.129913 
z"/>
<path fill="#F7F9FB" opacity="1.000000" stroke="none" 
	d="
M109.967545,30.991581 
	C114.844688,31.672026 117.240952,34.281723 116.936646,38.806061 
	C116.699745,42.328339 114.626450,44.603142 111.009636,45.137173 
	C106.984291,45.731529 103.543442,43.343128 102.870689,39.581387 
	C102.071167,35.110798 104.258949,32.306004 109.967545,30.991581 
z"/>
<path fill="#F7F9FB" opacity="1.000000" stroke="none" 
	d="
M103.095329,138.393616 
	C102.301392,134.383423 103.092651,131.290039 106.556664,129.528793 
	C109.069740,128.251022 111.711197,128.352478 114.090462,130.066284 
	C116.474930,131.783859 117.413010,134.203125 116.935509,137.048096 
	C116.418800,140.126602 114.482986,142.191574 111.481926,142.845596 
	C107.788452,143.650513 105.022453,142.068710 103.095329,138.393616 
z"/>
<path fill="#EDF1F7" opacity="1.000000" stroke="none" 
	d="
M113.255386,19.336330 
	C113.323563,22.300770 111.955650,23.649242 109.384422,23.525270 
	C107.739548,23.445963 106.752014,22.266462 106.356247,20.727819 
	C105.935730,19.092968 106.643707,17.734898 108.065323,17.055716 
	C110.318985,15.979016 112.193604,16.469528 113.255386,19.336330 
z"/>
<path fill="#ECF0F7" opacity="1.000000" stroke="none" 
	d="
M106.328819,153.288727 
	C107.486794,150.586639 109.235138,149.806137 111.584900,150.896698 
	C113.110596,151.604797 113.477898,153.032532 113.261787,154.620972 
	C113.027184,156.345337 111.863358,157.278168 110.296471,157.385147 
	C107.759514,157.558350 106.360870,156.208527 106.328819,153.288727 
z"/>
<path fill="#EAEEF6" opacity="1.000000" stroke="none" 
	d="
M80.905121,153.965332 
	C80.260071,156.810425 78.721733,157.956665 76.176682,157.244507 
	C74.587700,156.799866 73.795563,155.588898 73.805054,153.913681 
	C73.814575,152.230927 74.638611,151.074646 76.232712,150.615280 
	C78.866516,149.856293 80.228722,151.229050 80.905121,153.965332 
z"/>
<path fill="#EAEEF6" opacity="1.000000" stroke="none" 
	d="
M80.833221,20.744776 
	C79.629562,23.314775 78.030586,24.348265 75.582718,23.094263 
	C74.058914,22.313648 73.612778,20.979298 73.867630,19.373608 
	C74.136269,17.681040 75.291916,16.695513 76.863396,16.584757 
	C79.431419,16.403765 80.818314,17.778408 80.833221,20.744776 
z"/>
<path fill="#EFF2F8" opacity="1.000000" stroke="none" 
	d="
M163.888199,102.193001 
	C164.229828,104.956757 163.149063,106.519936 160.823547,106.818962 
	C158.962036,107.058319 157.642899,105.901451 157.099686,104.145279 
	C156.675171,102.772896 157.051453,101.313347 158.240845,100.562531 
	C160.363373,99.222664 162.357101,99.496605 163.888199,102.193001 
z"/>
<path fill="#EFF2F8" opacity="1.000000" stroke="none" 
	d="
M162.955841,68.199226 
	C164.628067,70.465820 164.379257,72.348557 162.408829,73.645660 
	C160.917542,74.627357 159.197739,74.473564 157.880630,73.031059 
	C156.728287,71.769020 156.580002,70.258812 157.546753,68.912910 
	C158.872635,67.067039 160.605896,66.372421 162.955841,68.199226 
z"/>
<path fill="#EEF1F7" opacity="1.000000" stroke="none" 
	d="
M29.002970,105.803787 
	C26.656691,107.524345 24.948713,107.024086 23.605623,105.062317 
	C22.630655,103.638245 22.841509,102.208366 23.990032,100.961555 
	C25.308590,99.530159 27.006714,99.351143 28.509134,100.350777 
	C30.498081,101.674118 30.647329,103.562904 29.002970,105.803787 
z"/>
<path fill="#EEF1F7" opacity="1.000000" stroke="none" 
	d="
M26.968081,67.137161 
	C29.753441,68.067978 30.678612,69.794128 29.818874,72.187042 
	C29.263931,73.731621 27.871975,74.274651 26.242462,74.149208 
	C24.553389,74.019188 23.427307,73.046829 23.164289,71.490585 
	C22.732336,68.934761 24.102072,67.526726 26.968081,67.137161 
z"/>
</svg>